Coordinates
version=1
nRows=11
nColumns=40
inDegrees=yes

Units are S.I. units (second, meters, Newtons, ...)
Angles are in degrees.

endheader
time	pelvis_tilt	pelvis_list	pelvis_rotation	pelvis_tx	pelvis_ty	pelvis_tz	hip_flexion_r	hip_adduction_r	hip_rotation_r	knee_angle_r	knee_angle_r_beta	ankle_angle_r	subtalar_angle_r	mtp_angle_r	hip_flexion_l	hip_adduction_l	hip_rotation_l	knee_angle_l	knee_angle_l_beta	ankle_angle_l	subtalar_angle_l	mtp_angle_l	lumbar_extension	lumbar_bending	lumbar_rotation	arm_flex_r	arm_add_r	arm_rot_r	elbow_flex_r	pro_sup_r	wrist_flex_r	wrist_dev_r	arm_flex_l	arm_add_l	arm_rot_l	elbow_flex_l	pro_sup_l	wrist_flex_l	wrist_dev_l
     52.85000000	     -7.09340490	     -4.06501057	     -4.49485280	      1.07713527	      0.93285942	      0.43553888	     38.93277972	     -8.44737810	     -6.78303345	     61.84915316	     61.84915316	     -2.88390493	    -14.72672691	      3.08980614	     11.23888127	     -4.33534180	    -11.07473334	     18.21987859	     18.21987859	     15.61664486	     -4.50082375	     -0.37122655	    -12.34735884	      4.74083058	      0.94503545	      1.86744154	    -17.51120740	     -8.70348531	     28.92869592	     47.09213001	      0.00000000	      0.00000000	      3.14236866	    -19.38242352	      0.81390249	     82.18059627	     46.97888073	      0.00000000	      0.00000000
     52.86200000	     -6.94046537	     -4.00645496	     -4.66198281	      1.07619243	      0.93337732	      0.43548662	     39.29136860	     -8.41056721	     -6.90949505	     59.06012650	     59.06012650	     -2.51795702	    -12.99874528	      2.05195489	      9.84061149	     -4.25644893	    -12.14275207	     16.95593698	     16.95593698	     15.69622719	     -2.76622927	     -0.87651559	    -12.68046774	      4.62009041	      1.30874171	      0.23732670	    -18.07724187	     -9.23022182	     27.22299814	     47.17912052	      0.00000000	      0.00000000	      4.34314193	    -19.47457121	      1.05338992	     83.76560710	     47.01376991	      0.00000000	      0.00000000
     52.87400000	     -6.92240445	     -3.90544019	     -4.76168473	      1.07506057	      0.93338951	      0.43548827	     39.66665816	     -8.22989607	     -6.81290326	     55.92585533	     55.92585533	     -2.35667151	    -11.95300129	      1.29913384	      8.93877495	     -4.13282771	    -12.79272389	     16.30499711	     16.30499711	     15.79929726	     -1.74821484	     -1.42943072	    -12.78205131	      4.48860793	      0.99738628	     -1.02578241	    -18.43099517	     -9.82582632	     26.29972400	     47.24134218	      0.00000000	      0.00000000	      5.28907662	    -19.68755037	      1.39893465	     84.72353652	     47.03130568	      0.00000000	      0.00000000
     52.88600000	     -6.96638501	     -3.88286612	     -4.77680920	      1.07397914	      0.93311079	      0.43569886	     39.81379500	     -7.92858208	     -6.75649658	     52.28566880	     52.28566880	     -2.83605775	    -11.39685574	     -1.12366906	      8.14326034	     -4.11272121	    -13.32318475	     15.69988311	     15.69988311	     15.67445508	     -0.74728603	     -2.71785766	    -12.78791444	      4.43227329	      0.89742926	     -2.71431623	    -18.54966978	    -12.03042623	     26.10835365	     47.35020555	      0.00000000	      0.00000000	      6.63426002	    -20.15271009	      2.45888590	     85.48383368	     47.06533273	      0.00000000	      0.00000000
     52.89800000	     -7.02387984	     -3.69259695	     -4.77024853	      1.07295832	      0.93269745	      0.43587020	     39.90295010	     -7.82031283	     -6.74084286	     48.54636334	     48.54636334	     -2.51091325	    -10.53725966	     -0.90626311	      7.37619627	     -3.82268788	    -13.53535448	     15.08792693	     15.08792693	     15.82545441	     -0.36378395	     -2.77923401	    -12.76438013	      4.20898198	      0.39948582	     -4.02079364	    -18.85554423	    -12.28837368	     25.85250300	     47.36011395	      0.00000000	      0.00000000	      7.42311975	    -20.01766851	      2.30452293	     86.18706488	     47.10140526	      0.00000000	      0.00000000
     52.91000000	     -7.02245931	     -3.52267964	     -4.75127624	      1.07215014	      0.93217806	      0.43626995	     39.70398717	     -7.66427404	     -6.79445338	     44.53791796	     44.53791796	     -2.14635403	     -9.64512276	     -0.68933233	      6.49058475	     -3.56285227	    -13.78061230	     14.40279645	     14.40279645	     15.96354696	      0.20772842	     -2.95264316	    -12.82402458	      3.96894739	      0.07104041	     -5.50755295	    -19.06783615	    -12.57228197	     25.89267520	     47.35396389	      0.00000000	      0.00000000	      8.39190879	    -19.96987443	      2.18411910	     87.15037508	     47.14363889	      0.00000000	      0.00000000
     52.92200000	     -7.14474252	     -3.37591849	     -4.69149783	      1.07146602	      0.93123072	      0.43685295	     39.43917208	     -7.46252993	     -6.97999054	     40.33902318	     40.33902318	     -1.85158874	     -8.83601923	     -0.21088726	      5.82067292	     -3.35757790	    -13.91018083	     13.88965532	     13.88965532	     16.20072386	      0.61394929	     -3.14940962	    -12.60717784	      3.74528788	     -0.43539865	     -6.84539370	    -19.18297299	    -12.73500533	     25.92229345	     47.34441790	      0.00000000	      0.00000000	      9.30389399	    -20.03661025	      2.05832653	     87.96920749	     47.17702043	      0.00000000	      0.00000000
     52.93400000	     -6.98194551	     -3.18817999	     -4.66872275	      1.07120893	      0.93042027	      0.43763536	     38.69754110	     -7.28719224	     -7.27083982	     36.07944562	     36.07944562	     -1.50557687	     -7.78415677	      0.31891942	      4.67796204	     -3.07212948	    -14.19641358	     13.12846112	     13.12846112	     16.40070423	      1.27509553	     -3.48411813	    -12.76979825	      3.40953144	     -0.48693622	     -8.74975595	    -19.30978699	    -13.04514993	     26.72533025	     47.29595432	      0.00000000	      0.00000000	     10.36537200	    -19.83261348	      2.09808729	     89.30890500	     47.22048289	      0.00000000	      0.00000000
     52.94600000	     -7.02279508	     -3.06886686	     -4.55772631	      1.07101495	      0.92906680	      0.43855448	     37.99023527	     -7.00830705	     -7.70869212	     31.80212644	     31.80212644	     -1.23155615	     -6.79829769	      1.15888663	      3.89799900	     -2.90263179	    -14.21686010	     12.63828747	     12.63828747	     16.70970018	      1.64934686	     -3.75352807	    -12.60944247	      3.18666106	     -0.83075970	    -10.24630414	    -19.36879959	    -13.20311086	     27.12511036	     47.26520750	      0.00000000	      0.00000000	     11.25696438	    -19.75333895	      2.07092040	     90.26449255	     47.25284992	      0.00000000	      0.00000000
     52.95800000	     -6.87951462	     -2.86696521	     -4.49485599	      1.07119859	      0.92757330	      0.43963459	     37.17979588	     -6.84098724	     -8.28770056	     28.10277852	     28.10277852	     -0.16594429	     -5.17447201	      4.02220916	      2.78063742	     -2.60734184	    -14.35403705	     11.91263812	     11.91263812	     16.76001288	      2.04675153	     -4.66910740	    -12.72001037	      2.91900488	     -0.07658408	    -14.16438547	    -19.33865867	    -13.82151868	     31.93477235	     46.96888921	      0.00000000	      0.00000000	     12.94806407	    -19.35050290	      3.09052054	     91.24344074	     47.31303107	      0.00000000	      0.00000000
     52.97000000	     -6.74980215	     -2.75155078	     -4.38904673	      1.07165056	      0.92586451	      0.44098847	     36.20518160	     -6.52985427	     -8.96834446	     24.50536645	     24.50536645	      0.18596321	     -3.82961515	      5.22587569	      1.74877228	     -2.44461734	    -14.34965957	     11.40129781	     11.40129781	     17.18798311	      2.38448592	     -4.87474125	    -12.65267323	      2.64164023	     -0.20796229	    -15.50537814	    -19.25291925	    -13.83020912	     31.98074788	     46.94018394	      0.00000000	      0.00000000	     13.84871560	    -19.12291489	      3.01033264	     92.47277937	     47.36235462	      0.00000000	      0.00000000
